<?xml version="1.0" encoding="utf-8" standalone="no"?>
<!DOCTYPE svg PUBLIC "-//W3C//DTD SVG 1.1//EN"
  "http://www.w3.org/Graphics/SVG/1.1/DTD/svg11.dtd">
<!-- Created with matplotlib (https://matplotlib.org/) -->
<svg height="335.414131pt" version="1.1" viewBox="0 0 398.368437 335.414131" width="398.368437pt" xmlns="http://www.w3.org/2000/svg" xmlns:xlink="http://www.w3.org/1999/xlink">
 <metadata>
  <rdf:RDF xmlns:cc="http://creativecommons.org/ns#" xmlns:dc="http://purl.org/dc/elements/1.1/" xmlns:rdf="http://www.w3.org/1999/02/22-rdf-syntax-ns#">
   <cc:Work>
    <dc:type rdf:resource="http://purl.org/dc/dcmitype/StillImage"/>
    <dc:date>2022-02-21T15:46:18.104627</dc:date>
    <dc:format>image/svg+xml</dc:format>
    <dc:creator>
     <cc:Agent>
      <dc:title>Matplotlib v3.3.4, https://matplotlib.org/</dc:title>
     </cc:Agent>
    </dc:creator>
   </cc:Work>
  </rdf:RDF>
 </metadata>
 <defs>
  <style type="text/css">*{stroke-linecap:butt;stroke-linejoin:round;}</style>
 </defs>
 <g id="figure_1">
  <g id="patch_1">
   <path d="M 0 335.414131 
L 398.368437 335.414131 
L 398.368437 0 
L 0 0 
z
" style="fill:none;"/>
  </g>
  <g id="axes_1">
   <g id="patch_2">
    <path d="M 56.368438 257.5743 
L 391.168438 257.5743 
L 391.168438 40.1343 
L 56.368438 40.1343 
z
" style="fill:#ffffff;"/>
   </g>
   <g id="patch_3">
    <path clip-path="url(#p9ad04a5d1f)" d="M 63.343438 257.5743 
L 77.293437 257.5743 
L 77.293437 127.1103 
L 63.343438 127.1103 
z
" style="fill:#007c92;"/>
   </g>
   <g id="patch_4">
    <path clip-path="url(#p9ad04a5d1f)" d="M 91.243437 257.5743 
L 105.193438 257.5743 
L 105.193438 40.1343 
L 91.243437 40.1343 
z
" style="fill:#007c92;"/>
   </g>
   <g id="patch_5">
    <path clip-path="url(#p9ad04a5d1f)" d="M 119.143438 257.5743 
L 133.093437 257.5743 
L 133.093437 40.1343 
L 119.143438 40.1343 
z
" style="fill:#007c92;"/>
   </g>
   <g id="patch_6">
    <path clip-path="url(#p9ad04a5d1f)" d="M 147.043437 257.5743 
L 160.993437 257.5743 
L 160.993437 148.8543 
L 147.043437 148.8543 
z
" style="fill:#007c92;"/>
   </g>
   <g id="patch_7">
    <path clip-path="url(#p9ad04a5d1f)" d="M 174.943438 257.5743 
L 188.893438 257.5743 
L 188.893438 94.4943 
L 174.943438 94.4943 
z
" style="fill:#007c92;"/>
   </g>
   <g id="patch_8">
    <path clip-path="url(#p9ad04a5d1f)" d="M 202.843437 257.5743 
L 216.793437 257.5743 
L 216.793437 94.4943 
L 202.843437 94.4943 
z
" style="fill:#007c92;"/>
   </g>
   <g id="patch_9">
    <path clip-path="url(#p9ad04a5d1f)" d="M 230.743437 257.5743 
L 244.693437 257.5743 
L 244.693437 133.322871 
L 230.743437 133.322871 
z
" style="fill:#007c92;"/>
   </g>
   <g id="patch_10">
    <path clip-path="url(#p9ad04a5d1f)" d="M 258.643438 257.5743 
L 272.593437 257.5743 
L 272.593437 133.322871 
L 258.643438 133.322871 
z
" style="fill:#007c92;"/>
   </g>
   <g id="patch_11">
    <path clip-path="url(#p9ad04a5d1f)" d="M 286.543437 257.5743 
L 300.493437 257.5743 
L 300.493437 164.385729 
L 286.543437 164.385729 
z
" style="fill:#007c92;"/>
   </g>
   <g id="patch_12">
    <path clip-path="url(#p9ad04a5d1f)" d="M 314.443438 257.5743 
L 328.393438 257.5743 
L 328.393438 102.260014 
L 314.443438 102.260014 
z
" style="fill:#007c92;"/>
   </g>
   <g id="patch_13">
    <path clip-path="url(#p9ad04a5d1f)" d="M 342.343437 257.5743 
L 356.293437 257.5743 
L 356.293437 40.1343 
L 342.343437 40.1343 
z
" style="fill:#007c92;"/>
   </g>
   <g id="patch_14">
    <path clip-path="url(#p9ad04a5d1f)" d="M 370.243438 257.5743 
L 384.193438 257.5743 
L 384.193438 40.1343 
L 370.243438 40.1343 
z
" style="fill:#007c92;"/>
   </g>
   <g id="patch_15">
    <path clip-path="url(#p9ad04a5d1f)" d="M 63.343438 127.1103 
L 77.293437 127.1103 
L 77.293437 127.1103 
L 63.343438 127.1103 
z
" style="fill:#67afd2;"/>
   </g>
   <g id="patch_16">
    <path clip-path="url(#p9ad04a5d1f)" d="M 91.243437 40.1343 
L 105.193438 40.1343 
L 105.193438 40.1343 
L 91.243437 40.1343 
z
" style="fill:#67afd2;"/>
   </g>
   <g id="patch_17">
    <path clip-path="url(#p9ad04a5d1f)" d="M 119.143438 40.1343 
L 133.093437 40.1343 
L 133.093437 40.1343 
L 119.143438 40.1343 
z
" style="fill:#67afd2;"/>
   </g>
   <g id="patch_18">
    <path clip-path="url(#p9ad04a5d1f)" d="M 147.043437 148.8543 
L 160.993437 148.8543 
L 160.993437 148.8543 
L 147.043437 148.8543 
z
" style="fill:#67afd2;"/>
   </g>
   <g id="patch_19">
    <path clip-path="url(#p9ad04a5d1f)" d="M 174.943438 94.4943 
L 188.893438 94.4943 
L 188.893438 94.4943 
L 174.943438 94.4943 
z
" style="fill:#67afd2;"/>
   </g>
   <g id="patch_20">
    <path clip-path="url(#p9ad04a5d1f)" d="M 202.843437 94.4943 
L 216.793437 94.4943 
L 216.793437 94.4943 
L 202.843437 94.4943 
z
" style="fill:#67afd2;"/>
   </g>
   <g id="patch_21">
    <path clip-path="url(#p9ad04a5d1f)" d="M 230.743437 133.322871 
L 244.693437 133.322871 
L 244.693437 102.260014 
L 230.743437 102.260014 
z
" style="fill:#67afd2;"/>
   </g>
   <g id="patch_22">
    <path clip-path="url(#p9ad04a5d1f)" d="M 258.643438 133.322871 
L 272.593437 133.322871 
L 272.593437 102.260014 
L 258.643438 102.260014 
z
" style="fill:#67afd2;"/>
   </g>
   <g id="patch_23">
    <path clip-path="url(#p9ad04a5d1f)" d="M 286.543437 164.385729 
L 300.493437 164.385729 
L 300.493437 164.385729 
L 286.543437 164.385729 
z
" style="fill:#67afd2;"/>
   </g>
   <g id="patch_24">
    <path clip-path="url(#p9ad04a5d1f)" d="M 314.443438 102.260014 
L 328.393438 102.260014 
L 328.393438 102.260014 
L 314.443438 102.260014 
z
" style="fill:#67afd2;"/>
   </g>
   <g id="patch_25">
    <path clip-path="url(#p9ad04a5d1f)" d="M 342.343437 40.1343 
L 356.293437 40.1343 
L 356.293437 40.1343 
L 342.343437 40.1343 
z
" style="fill:#67afd2;"/>
   </g>
   <g id="patch_26">
    <path clip-path="url(#p9ad04a5d1f)" d="M 370.243438 40.1343 
L 384.193438 40.1343 
L 384.193438 40.1343 
L 370.243438 40.1343 
z
" style="fill:#67afd2;"/>
   </g>
   <g id="patch_27">
    <path clip-path="url(#p9ad04a5d1f)" d="M 63.343438 127.1103 
L 77.293437 127.1103 
L 77.293437 127.1103 
L 63.343438 127.1103 
z
" style="fill:#c74632;"/>
   </g>
   <g id="patch_28">
    <path clip-path="url(#p9ad04a5d1f)" d="M 91.243437 40.1343 
L 105.193438 40.1343 
L 105.193438 40.1343 
L 91.243437 40.1343 
z
" style="fill:#c74632;"/>
   </g>
   <g id="patch_29">
    <path clip-path="url(#p9ad04a5d1f)" d="M 119.143438 40.1343 
L 133.093437 40.1343 
L 133.093437 40.1343 
L 119.143438 40.1343 
z
" style="fill:#c74632;"/>
   </g>
   <g id="patch_30">
    <path clip-path="url(#p9ad04a5d1f)" d="M 147.043437 148.8543 
L 160.993437 148.8543 
L 160.993437 148.8543 
L 147.043437 148.8543 
z
" style="fill:#c74632;"/>
   </g>
   <g id="patch_31">
    <path clip-path="url(#p9ad04a5d1f)" d="M 174.943438 94.4943 
L 188.893438 94.4943 
L 188.893438 94.4943 
L 174.943438 94.4943 
z
" style="fill:#c74632;"/>
   </g>
   <g id="patch_32">
    <path clip-path="url(#p9ad04a5d1f)" d="M 202.843437 94.4943 
L 216.793437 94.4943 
L 216.793437 94.4943 
L 202.843437 94.4943 
z
" style="fill:#c74632;"/>
   </g>
   <g id="patch_33">
    <path clip-path="url(#p9ad04a5d1f)" d="M 230.743437 102.260014 
L 244.693437 102.260014 
L 244.693437 71.197157 
L 230.743437 71.197157 
z
" style="fill:#c74632;"/>
   </g>
   <g id="patch_34">
    <path clip-path="url(#p9ad04a5d1f)" d="M 258.643438 102.260014 
L 272.593437 102.260014 
L 272.593437 71.197157 
L 258.643438 71.197157 
z
" style="fill:#c74632;"/>
   </g>
   <g id="patch_35">
    <path clip-path="url(#p9ad04a5d1f)" d="M 286.543437 164.385729 
L 300.493437 164.385729 
L 300.493437 164.385729 
L 286.543437 164.385729 
z
" style="fill:#c74632;"/>
   </g>
   <g id="patch_36">
    <path clip-path="url(#p9ad04a5d1f)" d="M 314.443438 102.260014 
L 328.393438 102.260014 
L 328.393438 71.197157 
L 314.443438 71.197157 
z
" style="fill:#c74632;"/>
   </g>
   <g id="patch_37">
    <path clip-path="url(#p9ad04a5d1f)" d="M 342.343437 40.1343 
L 356.293437 40.1343 
L 356.293437 40.1343 
L 342.343437 40.1343 
z
" style="fill:#c74632;"/>
   </g>
   <g id="patch_38">
    <path clip-path="url(#p9ad04a5d1f)" d="M 370.243438 40.1343 
L 384.193438 40.1343 
L 384.193438 40.1343 
L 370.243438 40.1343 
z
" style="fill:#c74632;"/>
   </g>
   <g id="patch_39">
    <path clip-path="url(#p9ad04a5d1f)" d="M 63.343438 127.1103 
L 77.293437 127.1103 
L 77.293437 127.1103 
L 63.343438 127.1103 
z
" style="fill:#f4795b;"/>
   </g>
   <g id="patch_40">
    <path clip-path="url(#p9ad04a5d1f)" d="M 91.243437 40.1343 
L 105.193438 40.1343 
L 105.193438 40.1343 
L 91.243437 40.1343 
z
" style="fill:#f4795b;"/>
   </g>
   <g id="patch_41">
    <path clip-path="url(#p9ad04a5d1f)" d="M 119.143438 40.1343 
L 133.093437 40.1343 
L 133.093437 40.1343 
L 119.143438 40.1343 
z
" style="fill:#f4795b;"/>
   </g>
   <g id="patch_42">
    <path clip-path="url(#p9ad04a5d1f)" d="M 147.043437 148.8543 
L 160.993437 148.8543 
L 160.993437 148.8543 
L 147.043437 148.8543 
z
" style="fill:#f4795b;"/>
   </g>
   <g id="patch_43">
    <path clip-path="url(#p9ad04a5d1f)" d="M 174.943438 94.4943 
L 188.893438 94.4943 
L 188.893438 94.4943 
L 174.943438 94.4943 
z
" style="fill:#f4795b;"/>
   </g>
   <g id="patch_44">
    <path clip-path="url(#p9ad04a5d1f)" d="M 202.843437 94.4943 
L 216.793437 94.4943 
L 216.793437 94.4943 
L 202.843437 94.4943 
z
" style="fill:#f4795b;"/>
   </g>
   <g id="patch_45">
    <path clip-path="url(#p9ad04a5d1f)" d="M 230.743437 71.197157 
L 244.693437 71.197157 
L 244.693437 71.197157 
L 230.743437 71.197157 
z
" style="fill:#f4795b;"/>
   </g>
   <g id="patch_46">
    <path clip-path="url(#p9ad04a5d1f)" d="M 258.643438 71.197157 
L 272.593437 71.197157 
L 272.593437 71.197157 
L 258.643438 71.197157 
z
" style="fill:#f4795b;"/>
   </g>
   <g id="patch_47">
    <path clip-path="url(#p9ad04a5d1f)" d="M 286.543437 164.385729 
L 300.493437 164.385729 
L 300.493437 164.385729 
L 286.543437 164.385729 
z
" style="fill:#f4795b;"/>
   </g>
   <g id="patch_48">
    <path clip-path="url(#p9ad04a5d1f)" d="M 314.443438 71.197157 
L 328.393438 71.197157 
L 328.393438 71.197157 
L 314.443438 71.197157 
z
" style="fill:#f4795b;"/>
   </g>
   <g id="patch_49">
    <path clip-path="url(#p9ad04a5d1f)" d="M 342.343437 40.1343 
L 356.293437 40.1343 
L 356.293437 40.1343 
L 342.343437 40.1343 
z
" style="fill:#f4795b;"/>
   </g>
   <g id="patch_50">
    <path clip-path="url(#p9ad04a5d1f)" d="M 370.243438 40.1343 
L 384.193438 40.1343 
L 384.193438 40.1343 
L 370.243438 40.1343 
z
" style="fill:#f4795b;"/>
   </g>
   <g id="patch_51">
    <path clip-path="url(#p9ad04a5d1f)" d="M 63.343438 127.1103 
L 77.293437 127.1103 
L 77.293437 127.1103 
L 63.343438 127.1103 
z
" style="fill:#766253;"/>
   </g>
   <g id="patch_52">
    <path clip-path="url(#p9ad04a5d1f)" d="M 91.243437 40.1343 
L 105.193438 40.1343 
L 105.193438 40.1343 
L 91.243437 40.1343 
z
" style="fill:#766253;"/>
   </g>
   <g id="patch_53">
    <path clip-path="url(#p9ad04a5d1f)" d="M 119.143438 40.1343 
L 133.093437 40.1343 
L 133.093437 40.1343 
L 119.143438 40.1343 
z
" style="fill:#766253;"/>
   </g>
   <g id="patch_54">
    <path clip-path="url(#p9ad04a5d1f)" d="M 147.043437 148.8543 
L 160.993437 148.8543 
L 160.993437 40.1343 
L 147.043437 40.1343 
z
" style="fill:#766253;"/>
   </g>
   <g id="patch_55">
    <path clip-path="url(#p9ad04a5d1f)" d="M 174.943438 94.4943 
L 188.893438 94.4943 
L 188.893438 94.4943 
L 174.943438 94.4943 
z
" style="fill:#766253;"/>
   </g>
   <g id="patch_56">
    <path clip-path="url(#p9ad04a5d1f)" d="M 202.843437 94.4943 
L 216.793437 94.4943 
L 216.793437 94.4943 
L 202.843437 94.4943 
z
" style="fill:#766253;"/>
   </g>
   <g id="patch_57">
    <path clip-path="url(#p9ad04a5d1f)" d="M 230.743437 71.197157 
L 244.693437 71.197157 
L 244.693437 40.1343 
L 230.743437 40.1343 
z
" style="fill:#766253;"/>
   </g>
   <g id="patch_58">
    <path clip-path="url(#p9ad04a5d1f)" d="M 258.643438 71.197157 
L 272.593437 71.197157 
L 272.593437 40.1343 
L 258.643438 40.1343 
z
" style="fill:#766253;"/>
   </g>
   <g id="patch_59">
    <path clip-path="url(#p9ad04a5d1f)" d="M 286.543437 164.385729 
L 300.493437 164.385729 
L 300.493437 40.1343 
L 286.543437 40.1343 
z
" style="fill:#766253;"/>
   </g>
   <g id="patch_60">
    <path clip-path="url(#p9ad04a5d1f)" d="M 314.443438 71.197157 
L 328.393438 71.197157 
L 328.393438 40.1343 
L 314.443438 40.1343 
z
" style="fill:#766253;"/>
   </g>
   <g id="patch_61">
    <path clip-path="url(#p9ad04a5d1f)" d="M 342.343437 40.1343 
L 356.293437 40.1343 
L 356.293437 40.1343 
L 342.343437 40.1343 
z
" style="fill:#766253;"/>
   </g>
   <g id="patch_62">
    <path clip-path="url(#p9ad04a5d1f)" d="M 370.243438 40.1343 
L 384.193438 40.1343 
L 384.193438 40.1343 
L 370.243438 40.1343 
z
" style="fill:#766253;"/>
   </g>
   <g id="patch_63">
    <path clip-path="url(#p9ad04a5d1f)" d="M 63.343438 127.1103 
L 77.293437 127.1103 
L 77.293437 40.1343 
L 63.343438 40.1343 
z
" style="fill:#d4d1d1;"/>
   </g>
   <g id="patch_64">
    <path clip-path="url(#p9ad04a5d1f)" d="M 91.243437 40.1343 
L 105.193438 40.1343 
L 105.193438 40.1343 
L 91.243437 40.1343 
z
" style="fill:#d4d1d1;"/>
   </g>
   <g id="patch_65">
    <path clip-path="url(#p9ad04a5d1f)" d="M 119.143438 40.1343 
L 133.093437 40.1343 
L 133.093437 40.1343 
L 119.143438 40.1343 
z
" style="fill:#d4d1d1;"/>
   </g>
   <g id="patch_66">
    <path clip-path="url(#p9ad04a5d1f)" d="M 147.043437 40.1343 
L 160.993437 40.1343 
L 160.993437 40.1343 
L 147.043437 40.1343 
z
" style="fill:#d4d1d1;"/>
   </g>
   <g id="patch_67">
    <path clip-path="url(#p9ad04a5d1f)" d="M 174.943438 94.4943 
L 188.893438 94.4943 
L 188.893438 40.1343 
L 174.943438 40.1343 
z
" style="fill:#d4d1d1;"/>
   </g>
   <g id="patch_68">
    <path clip-path="url(#p9ad04a5d1f)" d="M 202.843437 94.4943 
L 216.793437 94.4943 
L 216.793437 40.1343 
L 202.843437 40.1343 
z
" style="fill:#d4d1d1;"/>
   </g>
   <g id="patch_69">
    <path clip-path="url(#p9ad04a5d1f)" d="M 230.743437 40.1343 
L 244.693437 40.1343 
L 244.693437 40.1343 
L 230.743437 40.1343 
z
" style="fill:#d4d1d1;"/>
   </g>
   <g id="patch_70">
    <path clip-path="url(#p9ad04a5d1f)" d="M 258.643438 40.1343 
L 272.593437 40.1343 
L 272.593437 40.1343 
L 258.643438 40.1343 
z
" style="fill:#d4d1d1;"/>
   </g>
   <g id="patch_71">
    <path clip-path="url(#p9ad04a5d1f)" d="M 286.543437 40.1343 
L 300.493437 40.1343 
L 300.493437 40.1343 
L 286.543437 40.1343 
z
" style="fill:#d4d1d1;"/>
   </g>
   <g id="patch_72">
    <path clip-path="url(#p9ad04a5d1f)" d="M 314.443438 40.1343 
L 328.393438 40.1343 
L 328.393438 40.1343 
L 314.443438 40.1343 
z
" style="fill:#d4d1d1;"/>
   </g>
   <g id="patch_73">
    <path clip-path="url(#p9ad04a5d1f)" d="M 342.343437 40.1343 
L 356.293437 40.1343 
L 356.293437 40.1343 
L 342.343437 40.1343 
z
" style="fill:#d4d1d1;"/>
   </g>
   <g id="patch_74">
    <path clip-path="url(#p9ad04a5d1f)" d="M 370.243438 40.1343 
L 384.193438 40.1343 
L 384.193438 40.1343 
L 370.243438 40.1343 
z
" style="fill:#d4d1d1;"/>
   </g>
   <g id="matplotlib.axis_1">
    <g id="xtick_1">
     <g id="line2d_1">
      <defs>
       <path d="M 0 0 
L 0 3.5 
" id="m746dec9635" style="stroke:#000000;stroke-width:0.8;"/>
      </defs>
      <g>
       <use style="stroke:#000000;stroke-width:0.8;" x="70.318438" xlink:href="#m746dec9635" y="257.5743"/>
      </g>
     </g>
     <g id="text_1">
      <!-- GHGSat -->
      <g transform="translate(40.012062 309.083357)rotate(-45)scale(0.14 -0.14)">
       <defs>
        <path d="M 38.625 73.578125 
Q 48.734375 73.578125 56.109375 69.671875 
Q 66.796875 64.0625 69.1875 50 
L 59.578125 50 
Q 57.8125 57.859375 52.296875 61.453125 
Q 46.78125 65.046875 38.375 65.046875 
Q 28.421875 65.046875 21.609375 57.5625 
Q 14.796875 50.09375 14.796875 35.296875 
Q 14.796875 22.515625 20.40625 14.484375 
Q 26.03125 6.453125 38.71875 6.453125 
Q 48.4375 6.453125 54.8125 12.078125 
Q 61.1875 17.71875 61.328125 30.328125 
L 38.875 30.328125 
L 38.875 38.375 
L 70.359375 38.375 
L 70.359375 0 
L 64.109375 0 
L 61.765625 9.234375 
Q 56.84375 3.8125 53.03125 1.703125 
Q 46.625 -1.90625 36.765625 -1.90625 
Q 24.03125 -1.90625 14.84375 6.34375 
Q 4.828125 16.703125 4.828125 34.765625 
Q 4.828125 52.78125 14.59375 63.421875 
Q 23.875 73.578125 38.625 73.578125 
z
M 37.015625 73.6875 
z
" id="Helvetica-71"/>
        <path d="M 7.859375 71.734375 
L 17.671875 71.734375 
L 17.671875 42.09375 
L 54.984375 42.09375 
L 54.984375 71.734375 
L 64.796875 71.734375 
L 64.796875 0 
L 54.984375 0 
L 54.984375 33.546875 
L 17.671875 33.546875 
L 17.671875 0 
L 7.859375 0 
z
" id="Helvetica-72"/>
        <path d="M 13.96875 23.140625 
Q 14.3125 17.046875 16.84375 13.234375 
Q 21.6875 6.109375 33.890625 6.109375 
Q 39.359375 6.109375 43.84375 7.671875 
Q 52.546875 10.6875 52.546875 18.5 
Q 52.546875 24.359375 48.875 26.859375 
Q 45.171875 29.296875 37.25 31.109375 
L 27.546875 33.296875 
Q 18.015625 35.453125 14.0625 38.03125 
Q 7.234375 42.53125 7.234375 51.46875 
Q 7.234375 61.140625 13.921875 67.328125 
Q 20.609375 73.53125 32.859375 73.53125 
Q 44.140625 73.53125 52.015625 68.078125 
Q 59.90625 62.640625 59.90625 50.6875 
L 50.78125 50.6875 
Q 50.046875 56.453125 47.65625 59.515625 
Q 43.21875 65.140625 32.5625 65.140625 
Q 23.96875 65.140625 20.203125 61.515625 
Q 16.453125 57.90625 16.453125 53.125 
Q 16.453125 47.859375 20.84375 45.40625 
Q 23.734375 43.84375 33.890625 41.5 
L 43.953125 39.203125 
Q 51.21875 37.546875 55.171875 34.671875 
Q 62.015625 29.640625 62.015625 20.0625 
Q 62.015625 8.15625 53.34375 3.03125 
Q 44.671875 -2.09375 33.203125 -2.09375 
Q 19.828125 -2.09375 12.25 4.734375 
Q 4.6875 11.53125 4.828125 23.140625 
z
M 33.59375 73.6875 
z
" id="Helvetica-83"/>
        <path d="M 13.1875 13.921875 
Q 13.1875 10.109375 15.96875 7.90625 
Q 18.75 5.71875 22.5625 5.71875 
Q 27.203125 5.71875 31.546875 7.859375 
Q 38.875 11.421875 38.875 19.53125 
L 38.875 26.609375 
Q 37.25 25.59375 34.703125 24.90625 
Q 32.171875 24.21875 29.734375 23.921875 
L 24.421875 23.25 
Q 19.625 22.609375 17.234375 21.234375 
Q 13.1875 18.953125 13.1875 13.921875 
z
M 34.46875 31.6875 
Q 37.5 32.078125 38.53125 34.234375 
Q 39.109375 35.40625 39.109375 37.59375 
Q 39.109375 42.09375 35.90625 44.109375 
Q 32.71875 46.140625 26.765625 46.140625 
Q 19.875 46.140625 17 42.4375 
Q 15.375 40.375 14.890625 36.328125 
L 6.6875 36.328125 
Q 6.9375 46 12.96875 49.78125 
Q 19 53.5625 26.953125 53.5625 
Q 36.1875 53.5625 41.9375 50.046875 
Q 47.65625 46.53125 47.65625 39.109375 
L 47.65625 8.984375 
Q 47.65625 7.625 48.21875 6.78125 
Q 48.78125 5.953125 50.59375 5.953125 
Q 51.171875 5.953125 51.90625 6.03125 
Q 52.640625 6.109375 53.46875 6.25 
L 53.46875 -0.25 
Q 51.421875 -0.828125 50.34375 -0.96875 
Q 49.265625 -1.125 47.40625 -1.125 
Q 42.875 -1.125 40.828125 2.09375 
Q 39.75 3.8125 39.3125 6.9375 
Q 36.625 3.421875 31.59375 0.828125 
Q 26.5625 -1.765625 20.515625 -1.765625 
Q 13.234375 -1.765625 8.609375 2.65625 
Q 4 7.078125 4 13.71875 
Q 4 21 8.546875 25 
Q 13.09375 29 20.453125 29.9375 
z
M 27.203125 53.5625 
z
" id="Helvetica-97"/>
        <path d="M 8.203125 66.890625 
L 17.09375 66.890625 
L 17.09375 52.296875 
L 25.4375 52.296875 
L 25.4375 45.125 
L 17.09375 45.125 
L 17.09375 10.984375 
Q 17.09375 8.25 18.953125 7.328125 
Q 19.96875 6.78125 22.359375 6.78125 
Q 23 6.78125 23.734375 6.8125 
Q 24.46875 6.84375 25.4375 6.9375 
L 25.4375 0 
Q 23.921875 -0.4375 22.28125 -0.625 
Q 20.65625 -0.828125 18.75 -0.828125 
Q 12.59375 -0.828125 10.390625 2.3125 
Q 8.203125 5.46875 8.203125 10.5 
L 8.203125 45.125 
L 1.125 45.125 
L 1.125 52.296875 
L 8.203125 52.296875 
z
" id="Helvetica-116"/>
       </defs>
       <use xlink:href="#Helvetica-71"/>
       <use x="77.783203" xlink:href="#Helvetica-72"/>
       <use x="150" xlink:href="#Helvetica-71"/>
       <use x="227.783203" xlink:href="#Helvetica-83"/>
       <use x="294.482422" xlink:href="#Helvetica-97"/>
       <use x="350.097656" xlink:href="#Helvetica-116"/>
      </g>
     </g>
    </g>
    <g id="xtick_2">
     <g id="line2d_2">
      <g>
       <use style="stroke:#000000;stroke-width:0.8;" x="98.218437" xlink:href="#m746dec9635" y="257.5743"/>
      </g>
     </g>
     <g id="text_2">
      <!-- UP Valenica -->
      <g transform="translate(50.844714 326.150705)rotate(-45)scale(0.14 -0.14)">
       <defs>
        <path d="M 18.171875 71.734375 
L 18.171875 27.390625 
Q 18.171875 19.578125 21.09375 14.40625 
Q 25.4375 6.59375 35.75 6.59375 
Q 48.09375 6.59375 52.546875 15.046875 
Q 54.9375 19.625 54.9375 27.390625 
L 54.9375 71.734375 
L 64.796875 71.734375 
L 64.796875 31.453125 
Q 64.796875 18.21875 61.234375 11.078125 
Q 54.6875 -1.90625 36.53125 -1.90625 
Q 18.359375 -1.90625 11.859375 11.078125 
Q 8.296875 18.21875 8.296875 31.453125 
L 8.296875 71.734375 
z
M 36.578125 71.734375 
z
" id="Helvetica-85"/>
        <path d="M 8.546875 71.734375 
L 40.828125 71.734375 
Q 50.390625 71.734375 56.25 66.328125 
Q 62.109375 60.9375 62.109375 51.171875 
Q 62.109375 42.78125 56.875 36.546875 
Q 51.65625 30.328125 40.828125 30.328125 
L 18.265625 30.328125 
L 18.265625 0 
L 8.546875 0 
z
M 52.296875 51.125 
Q 52.296875 59.03125 46.4375 61.859375 
Q 43.21875 63.375 37.59375 63.375 
L 18.265625 63.375 
L 18.265625 38.53125 
L 37.59375 38.53125 
Q 44.140625 38.53125 48.21875 41.3125 
Q 52.296875 44.09375 52.296875 51.125 
z
" id="Helvetica-80"/>
        <path id="Helvetica-32"/>
        <path d="M 13.28125 71.734375 
L 33.890625 10.640625 
L 54.25 71.734375 
L 65.140625 71.734375 
L 38.96875 0 
L 28.65625 0 
L 2.546875 71.734375 
z
" id="Helvetica-86"/>
        <path d="M 6.6875 71.734375 
L 15.484375 71.734375 
L 15.484375 0 
L 6.6875 0 
z
" id="Helvetica-108"/>
        <path d="M 28.21875 53.46875 
Q 33.796875 53.46875 39.015625 50.859375 
Q 44.234375 48.25 46.96875 44.09375 
Q 49.609375 40.140625 50.484375 34.859375 
Q 51.265625 31.25 51.265625 23.34375 
L 12.9375 23.34375 
Q 13.1875 15.375 16.703125 10.5625 
Q 20.21875 5.765625 27.59375 5.765625 
Q 34.46875 5.765625 38.578125 10.296875 
Q 40.921875 12.9375 41.890625 16.40625 
L 50.53125 16.40625 
Q 50.203125 13.53125 48.265625 9.984375 
Q 46.34375 6.453125 43.953125 4.203125 
Q 39.9375 0.296875 34.03125 -1.078125 
Q 30.859375 -1.859375 26.859375 -1.859375 
Q 17.09375 -1.859375 10.296875 5.25 
Q 3.515625 12.359375 3.515625 25.140625 
Q 3.515625 37.75 10.34375 45.609375 
Q 17.1875 53.46875 28.21875 53.46875 
z
M 42.234375 30.328125 
Q 41.703125 36.03125 39.75 39.453125 
Q 36.140625 45.796875 27.6875 45.796875 
Q 21.625 45.796875 17.515625 41.421875 
Q 13.421875 37.0625 13.1875 30.328125 
z
M 27.390625 53.5625 
z
" id="Helvetica-101"/>
        <path d="M 6.453125 52.296875 
L 14.796875 52.296875 
L 14.796875 44.875 
Q 18.5 49.46875 22.65625 51.46875 
Q 26.8125 53.46875 31.890625 53.46875 
Q 43.015625 53.46875 46.921875 45.703125 
Q 49.078125 41.453125 49.078125 33.546875 
L 49.078125 0 
L 40.140625 0 
L 40.140625 32.953125 
Q 40.140625 37.75 38.71875 40.671875 
Q 36.375 45.5625 30.21875 45.5625 
Q 27.09375 45.5625 25.09375 44.921875 
Q 21.484375 43.84375 18.75 40.625 
Q 16.546875 38.03125 15.890625 35.265625 
Q 15.234375 32.515625 15.234375 27.390625 
L 15.234375 0 
L 6.453125 0 
z
M 27.09375 53.5625 
z
" id="Helvetica-110"/>
        <path d="M 6.453125 52.046875 
L 15.375 52.046875 
L 15.375 0 
L 6.453125 0 
z
M 6.453125 71.734375 
L 15.375 71.734375 
L 15.375 61.765625 
L 6.453125 61.765625 
z
" id="Helvetica-105"/>
        <path d="M 26.609375 53.8125 
Q 35.453125 53.8125 40.984375 49.515625 
Q 46.53125 45.21875 47.65625 34.71875 
L 39.109375 34.71875 
Q 38.328125 39.546875 35.546875 42.75 
Q 32.765625 45.953125 26.609375 45.953125 
Q 18.21875 45.953125 14.59375 37.75 
Q 12.25 32.421875 12.25 24.609375 
Q 12.25 16.75 15.5625 11.375 
Q 18.890625 6 26.03125 6 
Q 31.5 6 34.6875 9.34375 
Q 37.890625 12.703125 39.109375 18.5 
L 47.65625 18.5 
Q 46.1875 8.109375 40.328125 3.296875 
Q 34.46875 -1.515625 25.34375 -1.515625 
Q 15.09375 -1.515625 8.984375 5.984375 
Q 2.875 13.484375 2.875 24.703125 
Q 2.875 38.484375 9.5625 46.140625 
Q 16.265625 53.8125 26.609375 53.8125 
z
M 25.25 53.5625 
z
" id="Helvetica-99"/>
       </defs>
       <use xlink:href="#Helvetica-85"/>
       <use x="72.216797" xlink:href="#Helvetica-80"/>
       <use x="138.916016" xlink:href="#Helvetica-32"/>
       <use x="166.699219" xlink:href="#Helvetica-86"/>
       <use x="233.398438" xlink:href="#Helvetica-97"/>
       <use x="289.013672" xlink:href="#Helvetica-108"/>
       <use x="311.230469" xlink:href="#Helvetica-101"/>
       <use x="366.845703" xlink:href="#Helvetica-110"/>
       <use x="422.460938" xlink:href="#Helvetica-105"/>
       <use x="444.677734" xlink:href="#Helvetica-99"/>
       <use x="494.677734" xlink:href="#Helvetica-97"/>
      </g>
     </g>
    </g>
    <g id="xtick_3">
     <g id="line2d_3">
      <g>
       <use style="stroke:#000000;stroke-width:0.8;" x="126.118437" xlink:href="#m746dec9635" y="257.5743"/>
      </g>
     </g>
     <g id="text_3">
      <!-- Kayrros -->
      <g transform="translate(99.114471 305.780948)rotate(-45)scale(0.14 -0.14)">
       <defs>
        <path d="M 7.625 71.734375 
L 17.09375 71.734375 
L 17.09375 36.765625 
L 52.046875 71.734375 
L 65.484375 71.734375 
L 35.640625 42.828125 
L 66.3125 0 
L 53.65625 0 
L 28.5625 35.984375 
L 17.09375 25 
L 17.09375 0 
L 7.625 0 
z
" id="Helvetica-75"/>
        <path d="M 39.109375 52.296875 
L 48.828125 52.296875 
Q 46.96875 47.265625 40.578125 29.34375 
Q 35.796875 15.875 32.5625 7.375 
Q 24.953125 -12.640625 21.828125 -17.03125 
Q 18.703125 -21.4375 11.078125 -21.4375 
Q 9.234375 -21.4375 8.234375 -21.28125 
Q 7.234375 -21.140625 5.765625 -20.75 
L 5.765625 -12.75 
Q 8.0625 -13.375 9.078125 -13.515625 
Q 10.109375 -13.671875 10.890625 -13.671875 
Q 13.328125 -13.671875 14.46875 -12.859375 
Q 15.625 -12.0625 16.40625 -10.890625 
Q 16.65625 -10.5 18.15625 -6.875 
Q 19.671875 -3.265625 20.359375 -1.515625 
L 1.03125 52.296875 
L 10.984375 52.296875 
L 25 9.71875 
z
M 24.953125 53.5625 
z
" id="Helvetica-121"/>
        <path d="M 6.6875 52.296875 
L 15.046875 52.296875 
L 15.046875 43.265625 
Q 16.0625 45.90625 20.0625 49.6875 
Q 24.078125 53.46875 29.296875 53.46875 
Q 29.546875 53.46875 30.125 53.421875 
Q 30.71875 53.375 32.125 53.21875 
L 32.125 43.953125 
Q 31.34375 44.09375 30.6875 44.140625 
Q 30.03125 44.1875 29.25 44.1875 
Q 22.609375 44.1875 19.046875 39.90625 
Q 15.484375 35.640625 15.484375 30.078125 
L 15.484375 0 
L 6.6875 0 
z
" id="Helvetica-114"/>
        <path d="M 27.203125 5.671875 
Q 35.9375 5.671875 39.1875 12.28125 
Q 42.4375 18.890625 42.4375 27 
Q 42.4375 34.328125 40.09375 38.921875 
Q 36.375 46.140625 27.296875 46.140625 
Q 19.234375 46.140625 15.578125 39.984375 
Q 11.921875 33.84375 11.921875 25.140625 
Q 11.921875 16.796875 15.578125 11.234375 
Q 19.234375 5.671875 27.203125 5.671875 
z
M 27.546875 53.8125 
Q 37.640625 53.8125 44.625 47.0625 
Q 51.609375 40.328125 51.609375 27.25 
Q 51.609375 14.59375 45.453125 6.34375 
Q 39.3125 -1.90625 26.375 -1.90625 
Q 15.578125 -1.90625 9.21875 5.390625 
Q 2.875 12.703125 2.875 25 
Q 2.875 38.1875 9.5625 46 
Q 16.265625 53.8125 27.546875 53.8125 
z
M 27.25 53.5625 
z
" id="Helvetica-111"/>
        <path d="M 11.671875 16.40625 
Q 12.0625 12.015625 13.875 9.671875 
Q 17.1875 5.421875 25.390625 5.421875 
Q 30.28125 5.421875 33.984375 7.546875 
Q 37.703125 9.671875 37.703125 14.109375 
Q 37.703125 17.484375 34.71875 19.234375 
Q 32.8125 20.3125 27.203125 21.734375 
L 20.21875 23.484375 
Q 13.53125 25.140625 10.359375 27.203125 
Q 4.6875 30.765625 4.6875 37.0625 
Q 4.6875 44.484375 10.03125 49.0625 
Q 15.375 53.65625 24.421875 53.65625 
Q 36.234375 53.65625 41.453125 46.734375 
Q 44.734375 42.328125 44.625 37.25 
L 36.328125 37.25 
Q 36.078125 40.234375 34.234375 42.671875 
Q 31.203125 46.140625 23.734375 46.140625 
Q 18.75 46.140625 16.1875 44.234375 
Q 13.625 42.328125 13.625 39.203125 
Q 13.625 35.796875 17 33.734375 
Q 18.953125 32.515625 22.75 31.59375 
L 28.5625 30.171875 
Q 38.03125 27.875 41.265625 25.734375 
Q 46.390625 22.359375 46.390625 15.140625 
Q 46.390625 8.15625 41.09375 3.078125 
Q 35.796875 -2 24.953125 -2 
Q 13.28125 -2 8.421875 3.296875 
Q 3.5625 8.59375 3.21875 16.40625 
z
M 24.65625 53.5625 
z
" id="Helvetica-115"/>
       </defs>
       <use xlink:href="#Helvetica-75"/>
       <use x="66.699219" xlink:href="#Helvetica-97"/>
       <use x="122.314453" xlink:href="#Helvetica-121"/>
       <use x="172.314453" xlink:href="#Helvetica-114"/>
       <use x="205.615234" xlink:href="#Helvetica-114"/>
       <use x="238.916016" xlink:href="#Helvetica-111"/>
       <use x="294.53125" xlink:href="#Helvetica-115"/>
      </g>
     </g>
    </g>
    <g id="xtick_4">
     <g id="line2d_4">
      <g>
       <use style="stroke:#000000;stroke-width:0.8;" x="154.018438" xlink:href="#m746dec9635" y="257.5743"/>
      </g>
     </g>
     <g id="text_4">
      <!-- SRON -->
      <g transform="translate(132.517972 300.277447)rotate(-45)scale(0.14 -0.14)">
       <defs>
        <path d="M 40.96875 38.875 
Q 47.796875 38.875 51.78125 41.609375 
Q 55.765625 44.34375 55.765625 51.46875 
Q 55.765625 59.125 50.203125 61.921875 
Q 47.21875 63.375 42.234375 63.375 
L 18.5 63.375 
L 18.5 38.875 
z
M 8.796875 71.734375 
L 42 71.734375 
Q 50.203125 71.734375 55.515625 69.34375 
Q 65.625 64.75 65.625 52.390625 
Q 65.625 45.953125 62.953125 41.84375 
Q 60.296875 37.75 55.515625 35.25 
Q 59.71875 33.546875 61.84375 30.765625 
Q 63.96875 27.984375 64.203125 21.734375 
L 64.546875 12.109375 
Q 64.703125 8.015625 65.234375 6 
Q 66.109375 2.59375 68.359375 1.609375 
L 68.359375 0 
L 56.453125 0 
Q 55.953125 0.921875 55.65625 2.390625 
Q 55.375 3.859375 55.171875 8.0625 
L 54.59375 20.015625 
Q 54.25 27.046875 49.359375 29.4375 
Q 46.578125 30.765625 40.625 30.765625 
L 18.5 30.765625 
L 18.5 0 
L 8.796875 0 
z
" id="Helvetica-82"/>
        <path d="M 38.578125 73.6875 
Q 57.5625 73.6875 66.703125 61.46875 
Q 73.828125 51.953125 73.828125 37.109375 
Q 73.828125 21.046875 65.671875 10.40625 
Q 56.109375 -2.09375 38.375 -2.09375 
Q 21.828125 -2.09375 12.359375 8.84375 
Q 3.90625 19.390625 3.90625 35.5 
Q 3.90625 50.046875 11.140625 60.40625 
Q 20.40625 73.6875 38.578125 73.6875 
z
M 39.546875 6.59375 
Q 52.390625 6.59375 58.125 15.796875 
Q 63.875 25 63.875 36.96875 
Q 63.875 49.609375 57.25 57.328125 
Q 50.640625 65.046875 39.15625 65.046875 
Q 28.03125 65.046875 21 57.390625 
Q 13.96875 49.75 13.96875 34.859375 
Q 13.96875 22.953125 20 14.765625 
Q 26.03125 6.59375 39.546875 6.59375 
z
M 38.875 73.6875 
z
" id="Helvetica-79"/>
        <path d="M 7.625 71.734375 
L 19.09375 71.734375 
L 55.328125 13.625 
L 55.328125 71.734375 
L 64.546875 71.734375 
L 64.546875 0 
L 53.65625 0 
L 16.890625 58.0625 
L 16.890625 0 
L 7.625 0 
z
M 35.453125 71.734375 
z
" id="Helvetica-78"/>
       </defs>
       <use xlink:href="#Helvetica-83"/>
       <use x="66.699219" xlink:href="#Helvetica-82"/>
       <use x="138.916016" xlink:href="#Helvetica-79"/>
       <use x="216.699219" xlink:href="#Helvetica-78"/>
      </g>
     </g>
    </g>
    <g id="xtick_5">
     <g id="line2d_5">
      <g>
       <use style="stroke:#000000;stroke-width:0.8;" x="181.918437" xlink:href="#m746dec9635" y="257.5743"/>
      </g>
     </g>
     <g id="text_5">
      <!-- UP Valencia -->
      <g transform="translate(134.544714 326.150705)rotate(-45)scale(0.14 -0.14)">
       <use xlink:href="#Helvetica-85"/>
       <use x="72.216797" xlink:href="#Helvetica-80"/>
       <use x="138.916016" xlink:href="#Helvetica-32"/>
       <use x="166.699219" xlink:href="#Helvetica-86"/>
       <use x="233.398438" xlink:href="#Helvetica-97"/>
       <use x="289.013672" xlink:href="#Helvetica-108"/>
       <use x="311.230469" xlink:href="#Helvetica-101"/>
       <use x="366.845703" xlink:href="#Helvetica-110"/>
       <use x="422.460938" xlink:href="#Helvetica-99"/>
       <use x="472.460938" xlink:href="#Helvetica-105"/>
       <use x="494.677734" xlink:href="#Helvetica-97"/>
      </g>
     </g>
    </g>
    <g id="xtick_6">
     <g id="line2d_6">
      <g>
       <use style="stroke:#000000;stroke-width:0.8;" x="209.818438" xlink:href="#m746dec9635" y="257.5743"/>
      </g>
     </g>
     <g id="text_6">
      <!-- Kayrros -->
      <g transform="translate(182.814471 305.780948)rotate(-45)scale(0.14 -0.14)">
       <use xlink:href="#Helvetica-75"/>
       <use x="66.699219" xlink:href="#Helvetica-97"/>
       <use x="122.314453" xlink:href="#Helvetica-121"/>
       <use x="172.314453" xlink:href="#Helvetica-114"/>
       <use x="205.615234" xlink:href="#Helvetica-114"/>
       <use x="238.916016" xlink:href="#Helvetica-111"/>
       <use x="294.53125" xlink:href="#Helvetica-115"/>
      </g>
     </g>
    </g>
    <g id="xtick_7">
     <g id="line2d_7">
      <g>
       <use style="stroke:#000000;stroke-width:0.8;" x="237.718437" xlink:href="#m746dec9635" y="257.5743"/>
      </g>
     </g>
     <g id="text_7">
      <!-- UP Valencia -->
      <g transform="translate(190.344714 326.150705)rotate(-45)scale(0.14 -0.14)">
       <use xlink:href="#Helvetica-85"/>
       <use x="72.216797" xlink:href="#Helvetica-80"/>
       <use x="138.916016" xlink:href="#Helvetica-32"/>
       <use x="166.699219" xlink:href="#Helvetica-86"/>
       <use x="233.398438" xlink:href="#Helvetica-97"/>
       <use x="289.013672" xlink:href="#Helvetica-108"/>
       <use x="311.230469" xlink:href="#Helvetica-101"/>
       <use x="366.845703" xlink:href="#Helvetica-110"/>
       <use x="422.460938" xlink:href="#Helvetica-99"/>
       <use x="472.460938" xlink:href="#Helvetica-105"/>
       <use x="494.677734" xlink:href="#Helvetica-97"/>
      </g>
     </g>
    </g>
    <g id="xtick_8">
     <g id="line2d_8">
      <g>
       <use style="stroke:#000000;stroke-width:0.8;" x="265.618437" xlink:href="#m746dec9635" y="257.5743"/>
      </g>
     </g>
     <g id="text_8">
      <!-- Kayrros -->
      <g transform="translate(238.614471 305.780948)rotate(-45)scale(0.14 -0.14)">
       <use xlink:href="#Helvetica-75"/>
       <use x="66.699219" xlink:href="#Helvetica-97"/>
       <use x="122.314453" xlink:href="#Helvetica-121"/>
       <use x="172.314453" xlink:href="#Helvetica-114"/>
       <use x="205.615234" xlink:href="#Helvetica-114"/>
       <use x="238.916016" xlink:href="#Helvetica-111"/>
       <use x="294.53125" xlink:href="#Helvetica-115"/>
      </g>
     </g>
    </g>
    <g id="xtick_9">
     <g id="line2d_9">
      <g>
       <use style="stroke:#000000;stroke-width:0.8;" x="293.518438" xlink:href="#m746dec9635" y="257.5743"/>
      </g>
     </g>
     <g id="text_9">
      <!-- SRON -->
      <g transform="translate(272.017972 300.277447)rotate(-45)scale(0.14 -0.14)">
       <use xlink:href="#Helvetica-83"/>
       <use x="66.699219" xlink:href="#Helvetica-82"/>
       <use x="138.916016" xlink:href="#Helvetica-79"/>
       <use x="216.699219" xlink:href="#Helvetica-78"/>
      </g>
     </g>
    </g>
    <g id="xtick_10">
     <g id="line2d_10">
      <g>
       <use style="stroke:#000000;stroke-width:0.8;" x="321.418437" xlink:href="#m746dec9635" y="257.5743"/>
      </g>
     </g>
     <g id="text_10">
      <!-- Varon -->
      <g transform="translate(302.105142 298.090278)rotate(-45)scale(0.14 -0.14)">
       <use xlink:href="#Helvetica-86"/>
       <use x="66.699219" xlink:href="#Helvetica-97"/>
       <use x="122.314453" xlink:href="#Helvetica-114"/>
       <use x="155.615234" xlink:href="#Helvetica-111"/>
       <use x="211.230469" xlink:href="#Helvetica-110"/>
      </g>
     </g>
    </g>
    <g id="xtick_11">
     <g id="line2d_11">
      <g>
       <use style="stroke:#000000;stroke-width:0.8;" x="349.318438" xlink:href="#m746dec9635" y="257.5743"/>
      </g>
     </g>
     <g id="text_11">
      <!-- UP Valencia -->
      <g transform="translate(301.944714 326.150705)rotate(-45)scale(0.14 -0.14)">
       <use xlink:href="#Helvetica-85"/>
       <use x="72.216797" xlink:href="#Helvetica-80"/>
       <use x="138.916016" xlink:href="#Helvetica-32"/>
       <use x="166.699219" xlink:href="#Helvetica-86"/>
       <use x="233.398438" xlink:href="#Helvetica-97"/>
       <use x="289.013672" xlink:href="#Helvetica-108"/>
       <use x="311.230469" xlink:href="#Helvetica-101"/>
       <use x="366.845703" xlink:href="#Helvetica-110"/>
       <use x="422.460938" xlink:href="#Helvetica-99"/>
       <use x="472.460938" xlink:href="#Helvetica-105"/>
       <use x="494.677734" xlink:href="#Helvetica-97"/>
      </g>
     </g>
    </g>
    <g id="xtick_12">
     <g id="line2d_12">
      <g>
       <use style="stroke:#000000;stroke-width:0.8;" x="377.218437" xlink:href="#m746dec9635" y="257.5743"/>
      </g>
     </g>
     <g id="text_12">
      <!-- Kayrros -->
      <g transform="translate(350.214471 305.780948)rotate(-45)scale(0.14 -0.14)">
       <use xlink:href="#Helvetica-75"/>
       <use x="66.699219" xlink:href="#Helvetica-97"/>
       <use x="122.314453" xlink:href="#Helvetica-121"/>
       <use x="172.314453" xlink:href="#Helvetica-114"/>
       <use x="205.615234" xlink:href="#Helvetica-114"/>
       <use x="238.916016" xlink:href="#Helvetica-111"/>
       <use x="294.53125" xlink:href="#Helvetica-115"/>
      </g>
     </g>
    </g>
   </g>
   <g id="matplotlib.axis_2">
    <g id="ytick_1">
     <g id="line2d_13">
      <defs>
       <path d="M 0 0 
L -3.5 0 
" id="ma6bdd9baf1" style="stroke:#000000;stroke-width:0.8;"/>
      </defs>
      <g>
       <use style="stroke:#000000;stroke-width:0.8;" x="56.368438" xlink:href="#ma6bdd9baf1" y="257.5743"/>
      </g>
     </g>
     <g id="text_13">
      <!-- 0 -->
      <g transform="translate(41.583125 262.595706)scale(0.14 -0.14)">
       <defs>
        <path d="M 27.046875 69.921875 
Q 40.625 69.921875 46.6875 58.734375 
Q 51.375 50.09375 51.375 35.0625 
Q 51.375 20.796875 47.125 11.46875 
Q 40.96875 -1.90625 27 -1.90625 
Q 14.40625 -1.90625 8.25 9.03125 
Q 3.125 18.171875 3.125 33.546875 
Q 3.125 45.453125 6.203125 54 
Q 11.96875 69.921875 27.046875 69.921875 
z
M 26.953125 6.109375 
Q 33.796875 6.109375 37.84375 12.15625 
Q 41.890625 18.21875 41.890625 34.71875 
Q 41.890625 46.625 38.953125 54.3125 
Q 36.03125 62.015625 27.59375 62.015625 
Q 19.828125 62.015625 16.234375 54.703125 
Q 12.640625 47.40625 12.640625 33.203125 
Q 12.640625 22.515625 14.9375 16.015625 
Q 18.453125 6.109375 26.953125 6.109375 
z
" id="Helvetica-48"/>
       </defs>
       <use xlink:href="#Helvetica-48"/>
      </g>
     </g>
    </g>
    <g id="ytick_2">
     <g id="line2d_14">
      <g>
       <use style="stroke:#000000;stroke-width:0.8;" x="56.368438" xlink:href="#ma6bdd9baf1" y="214.0863"/>
      </g>
     </g>
     <g id="text_14">
      <!-- 20 -->
      <g transform="translate(33.797813 219.107706)scale(0.14 -0.14)">
       <defs>
        <path d="M 3.125 0 
Q 3.609375 9.03125 6.859375 15.71875 
Q 10.109375 22.40625 19.53125 27.875 
L 28.90625 33.296875 
Q 35.203125 36.96875 37.75 39.546875 
Q 41.75 43.609375 41.75 48.828125 
Q 41.75 54.9375 38.078125 58.515625 
Q 34.421875 62.109375 28.328125 62.109375 
Q 19.28125 62.109375 15.828125 55.28125 
Q 13.96875 51.609375 13.765625 45.125 
L 4.828125 45.125 
Q 4.984375 54.25 8.203125 60.015625 
Q 13.921875 70.171875 28.375 70.171875 
Q 40.375 70.171875 45.921875 63.671875 
Q 51.46875 57.171875 51.46875 49.21875 
Q 51.46875 40.828125 45.5625 34.859375 
Q 42.140625 31.390625 33.296875 26.46875 
L 26.609375 22.75 
Q 21.828125 20.125 19.09375 17.71875 
Q 14.203125 13.484375 12.9375 8.296875 
L 51.125 8.296875 
L 51.125 0 
L 3.125 0 
z
" id="Helvetica-50"/>
       </defs>
       <use xlink:href="#Helvetica-50"/>
       <use x="55.615234" xlink:href="#Helvetica-48"/>
      </g>
     </g>
    </g>
    <g id="ytick_3">
     <g id="line2d_15">
      <g>
       <use style="stroke:#000000;stroke-width:0.8;" x="56.368438" xlink:href="#ma6bdd9baf1" y="170.5983"/>
      </g>
     </g>
     <g id="text_15">
      <!-- 40 -->
      <g transform="translate(33.797813 175.619706)scale(0.14 -0.14)">
       <defs>
        <path d="M 33.0625 24.75 
L 33.0625 56.453125 
L 10.640625 24.75 
z
M 33.203125 0 
L 33.203125 17.09375 
L 2.546875 17.09375 
L 2.546875 25.6875 
L 34.578125 70.125 
L 42 70.125 
L 42 24.75 
L 52.296875 24.75 
L 52.296875 17.09375 
L 42 17.09375 
L 42 0 
z
" id="Helvetica-52"/>
       </defs>
       <use xlink:href="#Helvetica-52"/>
       <use x="55.615234" xlink:href="#Helvetica-48"/>
      </g>
     </g>
    </g>
    <g id="ytick_4">
     <g id="line2d_16">
      <g>
       <use style="stroke:#000000;stroke-width:0.8;" x="56.368438" xlink:href="#ma6bdd9baf1" y="127.1103"/>
      </g>
     </g>
     <g id="text_16">
      <!-- 60 -->
      <g transform="translate(33.797813 132.131706)scale(0.14 -0.14)">
       <defs>
        <path d="M 29.25 70.21875 
Q 40.96875 70.21875 45.578125 64.140625 
Q 50.203125 58.0625 50.203125 51.609375 
L 41.5 51.609375 
Q 40.71875 55.765625 39.015625 58.109375 
Q 35.84375 62.5 29.390625 62.5 
Q 22.015625 62.5 17.671875 55.6875 
Q 13.328125 48.875 12.84375 36.1875 
Q 15.875 40.625 20.453125 42.828125 
Q 24.65625 44.78125 29.828125 44.78125 
Q 38.625 44.78125 45.15625 39.15625 
Q 51.703125 33.546875 51.703125 22.40625 
Q 51.703125 12.890625 45.5 5.53125 
Q 39.3125 -1.8125 27.828125 -1.8125 
Q 18.015625 -1.8125 10.890625 5.640625 
Q 3.765625 13.09375 3.765625 30.71875 
Q 3.765625 43.75 6.9375 52.828125 
Q 13.03125 70.21875 29.25 70.21875 
z
M 28.609375 6 
Q 35.546875 6 38.984375 10.65625 
Q 42.4375 15.328125 42.4375 21.6875 
Q 42.4375 27.046875 39.359375 31.90625 
Q 36.28125 36.765625 28.171875 36.765625 
Q 22.515625 36.765625 18.234375 33 
Q 13.96875 29.25 13.96875 21.6875 
Q 13.96875 15.046875 17.84375 10.515625 
Q 21.734375 6 28.609375 6 
z
" id="Helvetica-54"/>
       </defs>
       <use xlink:href="#Helvetica-54"/>
       <use x="55.615234" xlink:href="#Helvetica-48"/>
      </g>
     </g>
    </g>
    <g id="ytick_5">
     <g id="line2d_17">
      <g>
       <use style="stroke:#000000;stroke-width:0.8;" x="56.368438" xlink:href="#ma6bdd9baf1" y="83.6223"/>
      </g>
     </g>
     <g id="text_17">
      <!-- 80 -->
      <g transform="translate(33.797813 88.643706)scale(0.14 -0.14)">
       <defs>
        <path d="M 27.203125 40.625 
Q 33.015625 40.625 36.28125 43.875 
Q 39.546875 47.125 39.546875 51.609375 
Q 39.546875 55.515625 36.421875 58.78125 
Q 33.296875 62.0625 26.90625 62.0625 
Q 20.5625 62.0625 17.71875 58.78125 
Q 14.890625 55.515625 14.890625 51.125 
Q 14.890625 46.1875 18.546875 43.40625 
Q 22.21875 40.625 27.203125 40.625 
z
M 27.734375 6 
Q 33.84375 6 37.859375 9.296875 
Q 41.890625 12.59375 41.890625 19.140625 
Q 41.890625 25.921875 37.734375 29.4375 
Q 33.59375 32.953125 27.09375 32.953125 
Q 20.796875 32.953125 16.8125 29.359375 
Q 12.84375 25.78125 12.84375 19.4375 
Q 12.84375 13.96875 16.484375 9.984375 
Q 20.125 6 27.734375 6 
z
M 15.234375 37.25 
Q 11.578125 38.8125 9.515625 40.921875 
Q 5.671875 44.828125 5.671875 51.078125 
Q 5.671875 58.890625 11.328125 64.5 
Q 17 70.125 27.390625 70.125 
Q 37.453125 70.125 43.15625 64.8125 
Q 48.875 59.515625 48.875 52.4375 
Q 48.875 45.90625 45.5625 41.84375 
Q 43.703125 39.546875 39.796875 37.359375 
Q 44.140625 35.359375 46.625 32.765625 
Q 51.265625 27.875 51.265625 20.0625 
Q 51.265625 10.84375 45.0625 4.421875 
Q 38.875 -2 27.546875 -2 
Q 17.328125 -2 10.265625 3.53125 
Q 3.21875 9.078125 3.21875 19.625 
Q 3.21875 25.828125 6.25 30.34375 
Q 9.28125 34.859375 15.234375 37.25 
z
" id="Helvetica-56"/>
       </defs>
       <use xlink:href="#Helvetica-56"/>
       <use x="55.615234" xlink:href="#Helvetica-48"/>
      </g>
     </g>
    </g>
    <g id="ytick_6">
     <g id="line2d_18">
      <g>
       <use style="stroke:#000000;stroke-width:0.8;" x="56.368438" xlink:href="#ma6bdd9baf1" y="40.1343"/>
      </g>
     </g>
     <g id="text_18">
      <!-- 100 -->
      <g transform="translate(26.0125 45.155706)scale(0.14 -0.14)">
       <defs>
        <path d="M 9.578125 49.515625 
L 9.578125 56.25 
Q 19.09375 57.171875 22.84375 59.34375 
Q 26.609375 61.53125 28.46875 69.625 
L 35.40625 69.625 
L 35.40625 0 
L 26.03125 0 
L 26.03125 49.515625 
z
" id="Helvetica-49"/>
       </defs>
       <use xlink:href="#Helvetica-49"/>
       <use x="55.615234" xlink:href="#Helvetica-48"/>
       <use x="111.230469" xlink:href="#Helvetica-48"/>
      </g>
     </g>
    </g>
    <g id="text_19">
     <!-- % of total -->
     <g transform="translate(18.6775 182.2043)rotate(-90)scale(0.16 -0.16)">
      <defs>
       <path d="M 68.171875 33.984375 
Q 75.203125 33.984375 80.171875 29 
Q 85.15625 24.03125 85.15625 17 
Q 85.15625 9.96875 80.171875 4.984375 
Q 75.203125 0 68.171875 0 
Q 61.078125 0 56.09375 4.984375 
Q 51.125 9.96875 51.125 17 
Q 51.125 24.03125 56.09375 29 
Q 61.078125 33.984375 68.171875 33.984375 
z
M 61.078125 69.625 
L 66.5 69.625 
L 27.390625 -1.859375 
L 21.96875 -1.859375 
z
M 20.21875 40.71875 
Q 24.421875 40.71875 27.375 43.671875 
Q 30.328125 46.625 30.328125 50.78125 
Q 30.328125 54.9375 27.375 57.890625 
Q 24.421875 60.84375 20.21875 60.84375 
Q 16.0625 60.84375 13.109375 57.90625 
Q 10.15625 54.984375 10.15625 50.78125 
Q 10.15625 46.625 13.109375 43.671875 
Q 16.0625 40.71875 20.21875 40.71875 
z
M 20.21875 67.828125 
Q 27.296875 67.828125 32.265625 62.8125 
Q 37.25 57.8125 37.25 50.78125 
Q 37.25 43.75 32.265625 38.765625 
Q 27.296875 33.796875 20.21875 33.796875 
Q 13.1875 33.796875 8.203125 38.765625 
Q 3.21875 43.75 3.21875 50.78125 
Q 3.21875 57.8125 8.203125 62.8125 
Q 13.1875 67.828125 20.21875 67.828125 
z
M 68.171875 6.9375 
Q 72.3125 6.9375 75.265625 9.890625 
Q 78.21875 12.84375 78.21875 17 
Q 78.21875 21.140625 75.265625 24.09375 
Q 72.3125 27.046875 68.171875 27.046875 
Q 63.96875 27.046875 61.015625 24.09375 
Q 58.0625 21.140625 58.0625 17 
Q 58.0625 12.84375 61.015625 9.890625 
Q 63.96875 6.9375 68.171875 6.9375 
z
" id="Helvetica-37"/>
       <path d="M 8.640625 60.25 
Q 8.84375 65.71875 10.546875 68.265625 
Q 13.625 72.75 22.40625 72.75 
Q 23.25 72.75 24.125 72.703125 
Q 25 72.65625 26.125 72.5625 
L 26.125 64.546875 
Q 24.75 64.65625 24.140625 64.671875 
Q 23.53125 64.703125 23 64.703125 
Q 19 64.703125 18.21875 62.625 
Q 17.4375 60.546875 17.4375 52.046875 
L 26.125 52.046875 
L 26.125 45.125 
L 17.328125 45.125 
L 17.328125 0 
L 8.640625 0 
L 8.640625 45.125 
L 1.375 45.125 
L 1.375 52.046875 
L 8.640625 52.046875 
L 8.640625 60.25 
z
" id="Helvetica-102"/>
      </defs>
      <use xlink:href="#Helvetica-37"/>
      <use x="88.916016" xlink:href="#Helvetica-32"/>
      <use x="116.699219" xlink:href="#Helvetica-111"/>
      <use x="172.314453" xlink:href="#Helvetica-102"/>
      <use x="200.097656" xlink:href="#Helvetica-32"/>
      <use x="227.880859" xlink:href="#Helvetica-116"/>
      <use x="255.664062" xlink:href="#Helvetica-111"/>
      <use x="311.279297" xlink:href="#Helvetica-116"/>
      <use x="339.0625" xlink:href="#Helvetica-97"/>
      <use x="394.677734" xlink:href="#Helvetica-108"/>
     </g>
    </g>
   </g>
   <g id="line2d_19">
    <path clip-path="url(#p9ad04a5d1f)" d="M 84.268438 336.414131 
L 84.268438 40.1343 
" style="fill:none;stroke:#000000;stroke-linecap:square;"/>
   </g>
   <g id="line2d_20">
    <path clip-path="url(#p9ad04a5d1f)" d="M 167.968437 336.414131 
L 167.968437 40.1343 
" style="fill:none;stroke:#000000;stroke-linecap:square;"/>
   </g>
   <g id="line2d_21">
    <path clip-path="url(#p9ad04a5d1f)" d="M 223.768438 336.414131 
L 223.768438 40.1343 
" style="fill:none;stroke:#000000;stroke-linecap:square;"/>
   </g>
   <g id="line2d_22">
    <path clip-path="url(#p9ad04a5d1f)" d="M 335.368438 336.414131 
L 335.368438 40.1343 
" style="fill:none;stroke:#000000;stroke-linecap:square;"/>
   </g>
   <g id="patch_75">
    <path d="M 56.368438 257.5743 
L 56.368438 40.1343 
" style="fill:none;stroke:#000000;stroke-linecap:square;stroke-linejoin:miter;stroke-width:0.8;"/>
   </g>
   <g id="patch_76">
    <path d="M 391.168438 257.5743 
L 391.168438 40.1343 
" style="fill:none;stroke:#000000;stroke-linecap:square;stroke-linejoin:miter;stroke-width:0.8;"/>
   </g>
   <g id="patch_77">
    <path d="M 56.368437 257.5743 
L 391.168437 257.5743 
" style="fill:none;stroke:#000000;stroke-linecap:square;stroke-linejoin:miter;stroke-width:0.8;"/>
   </g>
   <g id="patch_78">
    <path d="M 56.368437 40.1343 
L 391.168437 40.1343 
" style="fill:none;stroke:#000000;stroke-linecap:square;stroke-linejoin:miter;stroke-width:0.8;"/>
   </g>
   <g id="text_20">
    <!-- GSC2 -->
    <g transform="translate(48.533438 18.6775)scale(0.16 -0.16)">
     <defs>
      <path d="M 37.84375 73.6875 
Q 51.46875 73.6875 58.984375 66.5 
Q 66.5 59.328125 67.328125 50.203125 
L 57.859375 50.203125 
Q 56.25 57.125 51.4375 61.171875 
Q 46.625 65.234375 37.9375 65.234375 
Q 27.34375 65.234375 20.828125 57.78125 
Q 14.3125 50.34375 14.3125 34.96875 
Q 14.3125 22.359375 20.1875 14.515625 
Q 26.078125 6.6875 37.75 6.6875 
Q 48.484375 6.6875 54.109375 14.9375 
Q 57.078125 19.28125 58.546875 26.375 
L 68.015625 26.375 
Q 66.75 15.046875 59.625 7.375 
Q 51.078125 -1.859375 36.578125 -1.859375 
Q 24.078125 -1.859375 15.578125 5.71875 
Q 4.390625 15.71875 4.390625 36.625 
Q 4.390625 52.484375 12.796875 62.640625 
Q 21.875 73.6875 37.84375 73.6875 
z
M 35.890625 73.6875 
z
" id="Helvetica-67"/>
     </defs>
     <use xlink:href="#Helvetica-71"/>
     <use x="77.783203" xlink:href="#Helvetica-83"/>
     <use x="144.482422" xlink:href="#Helvetica-67"/>
     <use x="216.699219" xlink:href="#Helvetica-50"/>
    </g>
    <!-- [5] -->
    <g transform="translate(61.424688 35.7855)scale(0.16 -0.16)">
     <defs>
      <path d="M 6.25 72.21875 
L 25 72.21875 
L 25 65.046875 
L 14.546875 65.046875 
L 14.546875 -12.5 
L 25 -12.5 
L 25 -19.671875 
L 6.25 -19.671875 
z
" id="Helvetica-91"/>
      <path d="M 12.359375 17.828125 
Q 13.234375 10.296875 19.34375 7.421875 
Q 22.46875 5.953125 26.5625 5.953125 
Q 34.375 5.953125 38.125 10.9375 
Q 41.890625 15.921875 41.890625 21.96875 
Q 41.890625 29.296875 37.421875 33.296875 
Q 32.953125 37.3125 26.703125 37.3125 
Q 22.171875 37.3125 18.921875 35.546875 
Q 15.671875 33.796875 13.375 30.671875 
L 5.765625 31.109375 
L 11.078125 68.75 
L 47.40625 68.75 
L 47.40625 60.25 
L 17.671875 60.25 
L 14.703125 40.828125 
Q 17.140625 42.671875 19.34375 43.609375 
Q 23.25 45.21875 28.375 45.21875 
Q 37.984375 45.21875 44.671875 39.015625 
Q 51.375 32.8125 51.375 23.296875 
Q 51.375 13.375 45.234375 5.796875 
Q 39.109375 -1.765625 25.6875 -1.765625 
Q 17.140625 -1.765625 10.5625 3.046875 
Q 4 7.859375 3.21875 17.828125 
z
" id="Helvetica-53"/>
      <path d="M 2.296875 -12.5 
L 12.703125 -12.5 
L 12.703125 65.046875 
L 2.296875 65.046875 
L 2.296875 72.21875 
L 21.046875 72.21875 
L 21.046875 -19.671875 
L 2.296875 -19.671875 
z
" id="Helvetica-93"/>
     </defs>
     <use xlink:href="#Helvetica-91"/>
     <use x="27.783203" xlink:href="#Helvetica-53"/>
     <use x="83.398438" xlink:href="#Helvetica-93"/>
    </g>
   </g>
   <g id="text_21">
    <!-- LS 8 -->
    <g transform="translate(109.662188 18.6775)scale(0.16 -0.16)">
     <defs>
      <path d="M 7.625 71.734375 
L 17.328125 71.734375 
L 17.328125 8.546875 
L 53.65625 8.546875 
L 53.65625 0 
L 7.625 0 
z
" id="Helvetica-76"/>
     </defs>
     <use xlink:href="#Helvetica-76"/>
     <use x="55.615234" xlink:href="#Helvetica-83"/>
     <use x="122.314453" xlink:href="#Helvetica-32"/>
     <use x="150.097656" xlink:href="#Helvetica-56"/>
    </g>
    <!-- [2] -->
    <g transform="translate(117.224688 35.7855)scale(0.16 -0.16)">
     <use xlink:href="#Helvetica-91"/>
     <use x="27.783203" xlink:href="#Helvetica-50"/>
     <use x="83.398438" xlink:href="#Helvetica-93"/>
    </g>
   </g>
   <g id="text_22">
    <!-- PRISMA -->
    <g transform="translate(165.195938 18.6775)scale(0.16 -0.16)">
     <defs>
      <path d="M 9.8125 71.734375 
L 19.625 71.734375 
L 19.625 0 
L 9.8125 0 
z
" id="Helvetica-73"/>
      <path d="M 7.375 71.734375 
L 21.296875 71.734375 
L 41.890625 11.078125 
L 62.359375 71.734375 
L 76.125 71.734375 
L 76.125 0 
L 66.890625 0 
L 66.890625 42.328125 
Q 66.890625 44.53125 66.984375 49.609375 
Q 67.09375 54.6875 67.09375 60.5 
L 46.625 0 
L 37.015625 0 
L 16.40625 60.5 
L 16.40625 58.296875 
Q 16.40625 55.671875 16.53125 50.265625 
Q 16.65625 44.875 16.65625 42.328125 
L 16.65625 0 
L 7.375 0 
z
" id="Helvetica-77"/>
      <path d="M 44.4375 29.390625 
L 33.546875 61.078125 
L 21.96875 29.390625 
z
M 28.46875 71.734375 
L 39.453125 71.734375 
L 65.484375 0 
L 54.828125 0 
L 47.5625 21.484375 
L 19.1875 21.484375 
L 11.421875 0 
L 1.46875 0 
z
M 33.5 71.734375 
z
" id="Helvetica-65"/>
     </defs>
     <use xlink:href="#Helvetica-80"/>
     <use x="66.699219" xlink:href="#Helvetica-82"/>
     <use x="138.916016" xlink:href="#Helvetica-73"/>
     <use x="166.699219" xlink:href="#Helvetica-83"/>
     <use x="233.398438" xlink:href="#Helvetica-77"/>
     <use x="316.699219" xlink:href="#Helvetica-65"/>
    </g>
    <!-- [4] -->
    <g transform="translate(186.974687 35.7855)scale(0.16 -0.16)">
     <use xlink:href="#Helvetica-91"/>
     <use x="27.783203" xlink:href="#Helvetica-52"/>
     <use x="83.398438" xlink:href="#Helvetica-93"/>
    </g>
   </g>
   <g id="text_23">
    <!-- Sentinel-2 -->
    <g transform="translate(243.547188 18.6775)scale(0.16 -0.16)">
     <defs>
      <path d="M 4.15625 32.375 
L 28.65625 32.375 
L 28.65625 23.34375 
L 4.15625 23.34375 
z
" id="Helvetica-45"/>
     </defs>
     <use xlink:href="#Helvetica-83"/>
     <use x="66.699219" xlink:href="#Helvetica-101"/>
     <use x="122.314453" xlink:href="#Helvetica-110"/>
     <use x="177.929688" xlink:href="#Helvetica-116"/>
     <use x="205.712891" xlink:href="#Helvetica-105"/>
     <use x="227.929688" xlink:href="#Helvetica-110"/>
     <use x="283.544922" xlink:href="#Helvetica-101"/>
     <use x="339.160156" xlink:href="#Helvetica-108"/>
     <use x="361.376953" xlink:href="#Helvetica-45"/>
     <use x="394.677734" xlink:href="#Helvetica-50"/>
    </g>
    <!-- [7] -->
    <g transform="translate(270.674688 35.7855)scale(0.16 -0.16)">
     <defs>
      <path d="M 52.296875 68.75 
L 52.296875 61.078125 
Q 48.921875 57.8125 43.328125 49.703125 
Q 37.75 41.609375 33.453125 32.234375 
Q 29.203125 23.09375 27 15.578125 
Q 25.59375 10.75 23.34375 0 
L 13.625 0 
Q 16.9375 20.015625 28.265625 39.84375 
Q 34.96875 51.46875 42.328125 59.90625 
L 3.65625 59.90625 
L 3.65625 68.75 
z
" id="Helvetica-55"/>
     </defs>
     <use xlink:href="#Helvetica-91"/>
     <use x="27.783203" xlink:href="#Helvetica-55"/>
     <use x="83.398438" xlink:href="#Helvetica-93"/>
    </g>
   </g>
   <g id="text_24">
    <!-- WV-3 -->
    <g transform="translate(343.268438 18.6775)scale(0.16 -0.16)">
     <defs>
      <path d="M 12.359375 71.734375 
L 25.875 13.375 
L 42.09375 71.734375 
L 52.640625 71.734375 
L 68.84375 13.375 
L 82.375 71.734375 
L 93.015625 71.734375 
L 74.171875 0 
L 63.96875 0 
L 47.40625 59.46875 
L 30.765625 0 
L 20.5625 0 
L 1.8125 71.734375 
z
" id="Helvetica-87"/>
      <path d="M 25.984375 -1.90625 
Q 13.578125 -1.90625 7.984375 4.90625 
Q 2.390625 11.71875 2.390625 21.484375 
L 11.578125 21.484375 
Q 12.15625 14.703125 14.109375 11.625 
Q 17.53125 6.109375 26.46875 6.109375 
Q 33.40625 6.109375 37.59375 9.8125 
Q 41.796875 13.53125 41.796875 19.390625 
Q 41.796875 26.609375 37.375 29.484375 
Q 32.953125 32.375 25.09375 32.375 
Q 24.21875 32.375 23.3125 32.34375 
Q 22.40625 32.328125 21.484375 32.28125 
L 21.484375 40.046875 
Q 22.859375 39.890625 23.78125 39.84375 
Q 24.703125 39.796875 25.78125 39.796875 
Q 30.71875 39.796875 33.890625 41.359375 
Q 39.453125 44.09375 39.453125 51.125 
Q 39.453125 56.34375 35.734375 59.171875 
Q 32.03125 62.015625 27.09375 62.015625 
Q 18.3125 62.015625 14.9375 56.15625 
Q 13.09375 52.9375 12.84375 46.96875 
L 4.15625 46.96875 
Q 4.15625 54.78125 7.28125 60.25 
Q 12.640625 70.015625 26.171875 70.015625 
Q 36.859375 70.015625 42.71875 65.25 
Q 48.578125 60.5 48.578125 51.46875 
Q 48.578125 45.015625 45.125 41.015625 
Q 42.96875 38.53125 39.546875 37.109375 
Q 45.0625 35.59375 48.15625 31.265625 
Q 51.265625 26.953125 51.265625 20.703125 
Q 51.265625 10.6875 44.671875 4.390625 
Q 38.09375 -1.90625 25.984375 -1.90625 
z
" id="Helvetica-51"/>
     </defs>
     <use xlink:href="#Helvetica-87"/>
     <use x="94.384766" xlink:href="#Helvetica-86"/>
     <use x="161.083984" xlink:href="#Helvetica-45"/>
     <use x="194.384766" xlink:href="#Helvetica-51"/>
    </g>
    <!-- [1] -->
    <g transform="translate(354.374687 35.7855)scale(0.16 -0.16)">
     <use xlink:href="#Helvetica-91"/>
     <use x="27.783203" xlink:href="#Helvetica-49"/>
     <use x="83.398438" xlink:href="#Helvetica-93"/>
    </g>
   </g>
  </g>
 </g>
 <defs>
  <clipPath id="p9ad04a5d1f">
   <rect height="217.44" width="334.8" x="56.368438" y="40.1343"/>
  </clipPath>
 </defs>
</svg>
